<svg width="299" height="100" viewBox="0 0 299 100" fill="none" xmlns="http://www.w3.org/2000/svg">
<path d="M0.015625 71.1719C0.223958 71.0156 0.5625 70.7552 1.03125 70.3906C1.44792 70.026 1.96875 69.349 2.59375 68.3594C3.16667 67.3698 3.81771 65.9375 4.54688 64.0625C5.27604 62.1875 6.03125 59.6354 6.8125 56.4062C7.22917 54.6875 7.77604 52.5 8.45312 49.8438C9.13021 47.1875 9.85938 44.349 10.6406 41.3281C11.474 38.3073 12.3073 35.2083 13.1406 32.0312C13.974 28.8021 14.7812 25.7552 15.5625 22.8906C16.3438 19.974 17.0469 17.3438 17.6719 15C18.2969 12.6562 18.7917 10.8333 19.1562 9.53125C18.1667 10.1562 17.2031 10.8594 16.2656 11.6406C15.4323 12.3177 14.5469 13.099 13.6094 13.9844C12.6719 14.8177 11.7604 15.7031 10.875 16.6406C10.1979 16.0677 9.67708 15.4427 9.3125 14.7656C9.10417 14.4531 8.92188 14.1146 8.76562 13.75C8.45312 12.9688 8.29688 12.1615 8.29688 11.3281C8.29688 10.4948 8.94792 9.63542 10.25 8.75C10.9271 8.28125 11.9427 7.60417 13.2969 6.71875C14.7031 5.83333 16.4219 4.97396 18.4531 4.14062C20.4844 3.25521 22.8542 2.5 25.5625 1.875C28.2708 1.25 31.2656 0.9375 34.5469 0.9375C37.8281 0.9375 40.4583 1.58854 42.4375 2.89062C44.4688 4.19271 46.0052 5.78125 47.0469 7.65625C48.1406 9.53125 48.8438 11.5104 49.1562 13.5938C49.4688 15.6771 49.5469 17.5 49.3906 19.0625C49.0781 21.9792 48.1406 25.026 46.5781 28.2031C45.0156 31.3802 42.8542 34.3229 40.0938 37.0312C37.3333 39.6875 33.974 41.9531 30.0156 43.8281C26.0573 45.7031 21.526 46.7708 16.4219 47.0312C16.0052 49.0104 15.5885 51.0417 15.1719 53.125C14.7552 55.2083 14.3125 57.2656 13.8438 59.2969C13.375 61.276 12.8802 63.125 12.3594 64.8438C11.8906 66.6146 11.3958 68.125 10.875 69.375C10.3542 70.7292 9.67708 71.7969 8.84375 72.5781C8.01042 73.4115 6.68229 73.8281 4.85938 73.8281C3.92188 73.8281 3.0625 73.5938 2.28125 73.125C1.44792 72.6562 0.692708 72.0052 0.015625 71.1719ZM18.5312 35.5469C18.375 36.3802 18.1667 37.474 17.9062 38.8281C17.6979 40.1302 17.4375 41.6146 17.125 43.2812C18.5312 43.0729 20.0938 42.7083 21.8125 42.1875C23.5312 41.6146 25.25 40.8594 26.9688 39.9219C28.6875 38.9844 30.3542 37.8646 31.9688 36.5625C33.6354 35.2083 35.1458 33.6719 36.5 31.9531C37.8542 30.1823 38.974 28.2031 39.8594 26.0156C40.7969 23.776 41.3958 21.3021 41.6562 18.5938C41.9167 15.9896 41.7604 13.8281 41.1875 12.1094C40.6667 10.3385 39.8854 8.93229 38.8438 7.89062C37.8021 6.79688 36.6042 6.04167 35.25 5.625C33.8958 5.15625 32.5417 4.92188 31.1875 4.92188C29.8854 4.92188 28.6094 5.10417 27.3594 5.46875C26.1094 5.83333 24.8594 6.30208 23.6094 6.875C23.7656 6.92708 23.9479 7.05729 24.1562 7.26562C24.4688 7.57812 24.7031 8.02083 24.8594 8.59375C23.6094 13.6458 22.5677 17.8646 21.7344 21.25C20.9531 24.6354 20.3281 27.3958 19.8594 29.5312C19.2865 32.0312 18.8438 34.0365 18.5312 35.5469ZM47.0469 58.75C49.3385 49.1146 51.1615 41.3802 52.5156 35.5469C53.9219 29.7135 54.9896 25.2604 55.7188 22.1875C56.5521 18.5417 57.125 16.0156 57.4375 14.6094C57.5938 13.6198 57.724 12.6562 57.8281 11.7188C57.9323 10.8854 57.9844 10.026 57.9844 9.14062C57.9844 8.25521 57.9062 7.44792 57.75 6.71875C58.1667 6.45833 58.6094 6.25 59.0781 6.09375C59.599 5.9375 60.0938 5.80729 60.5625 5.70312C61.1354 5.54688 61.7083 5.41667 62.2812 5.3125C62.8542 5.20833 63.375 5.15625 63.8438 5.15625C64.2604 5.15625 64.651 5.20833 65.0156 5.3125C65.3802 5.36458 65.6146 5.52083 65.7188 5.78125C66.0312 6.04167 66.1615 6.5625 66.1094 7.34375C66.1094 8.125 66.0573 8.93229 65.9531 9.76562C65.7448 10.7552 65.5104 11.8229 65.25 12.9688C64.625 15.2083 63.7656 18.4375 62.6719 22.6562C61.7344 26.25 60.4583 31.1458 58.8438 37.3438C57.2812 43.5417 55.3021 51.3542 52.9062 60.7812C52.6458 61.0417 52.3333 61.224 51.9688 61.3281C51.6042 61.4323 51.2656 61.4844 50.9531 61.4844C50.5885 61.4844 50.1979 61.4583 49.7812 61.4062C49.4167 61.3021 49.0521 61.1458 48.6875 60.9375C48.375 60.7292 48.0625 60.4427 47.75 60.0781C47.4375 59.7656 47.2031 59.3229 47.0469 58.75ZM75.4062 61.25C73.4271 61.25 71.8125 60.9375 70.5625 60.3125C69.3125 59.6875 68.3229 58.9323 67.5938 58.0469C66.9167 57.1094 66.4219 56.1198 66.1094 55.0781C65.849 53.9844 65.7188 52.9948 65.7188 52.1094C65.7188 50.5469 65.849 48.9062 66.1094 47.1875C66.3698 45.4167 66.6823 43.8021 67.0469 42.3438C67.4115 40.8333 67.724 39.5573 67.9844 38.5156C68.2969 37.474 68.5052 36.8229 68.6094 36.5625C69.0781 35.0521 69.6771 33.75 70.4062 32.6562C71.1875 31.5104 72.2552 30.7292 73.6094 30.3125C74.1302 30.2083 74.6771 30.1042 75.25 30C75.7188 29.9479 76.1875 29.9219 76.6562 29.9219C77.1771 29.9219 77.6458 30 78.0625 30.1562C76.6562 33.75 75.5365 36.7448 74.7031 39.1406C73.9219 41.5365 73.3229 43.4896 72.9062 45C72.4375 46.7188 72.151 48.099 72.0469 49.1406C71.7865 51.4844 71.9948 53.2552 72.6719 54.4531C73.349 55.651 74.7292 56.25 76.8125 56.25C78.1667 56.25 79.4688 55.7552 80.7188 54.7656C81.9688 53.724 83.1146 52.3958 84.1562 50.7812C84 49.9479 83.9219 49.0885 83.9219 48.2031C83.9219 46.5365 84.0521 44.9219 84.3125 43.3594C84.625 41.7448 84.9635 40.2604 85.3281 38.9062C85.7448 37.5 86.1615 36.25 86.5781 35.1562C87.0469 34.0625 87.4375 33.2031 87.75 32.5781C88.3229 31.3281 88.8438 30.5729 89.3125 30.3125C89.7812 30 90.5365 29.8177 91.5781 29.7656C91.9948 29.7135 92.3333 29.7135 92.5938 29.7656C92.9062 29.7656 93.1667 29.7917 93.375 29.8438C94 30 94.3125 30.3125 94.3125 30.7812C94.3125 31.6146 94.2604 32.8646 94.1562 34.5312C94.0521 36.1979 93.7396 37.9167 93.2188 39.6875C92.8542 41.1458 92.4896 42.3958 92.125 43.4375C91.8125 44.4271 91.5 45.2865 91.1875 46.0156C90.875 46.6927 90.5625 47.2656 90.25 47.7344C89.9375 48.151 89.651 48.5417 89.3906 48.9062C89.4948 50.4688 89.625 51.7188 89.7812 52.6562C89.9375 53.5938 90.1198 54.3229 90.3281 54.8438C90.5885 55.3125 90.875 55.651 91.1875 55.8594C91.5521 56.0156 91.9427 56.0938 92.3594 56.0938C93.0885 56.0938 93.9479 55.7552 94.9375 55.0781C95.9271 54.349 96.9427 53.4635 97.9844 52.4219C99.0781 51.3281 100.146 50.1562 101.188 48.9062C102.281 47.6042 103.271 46.3802 104.156 45.2344C105.042 44.0885 105.797 43.099 106.422 42.2656C107.047 41.3802 107.438 40.8333 107.594 40.625C107.958 40.1562 108.297 39.8698 108.609 39.7656C108.974 39.6615 109.26 39.7135 109.469 39.9219C109.677 40.0781 109.781 40.3646 109.781 40.7812C109.833 41.1458 109.729 41.5625 109.469 42.0312C108.427 44.0104 107.125 46.1198 105.562 48.3594C104.052 50.5469 102.411 52.5781 100.641 54.4531C98.9219 56.3281 97.1771 57.8906 95.4062 59.1406C93.6354 60.3906 91.9688 61.0156 90.4062 61.0156C89 61.0156 87.8802 60.5469 87.0469 59.6094C86.2656 58.6198 85.5885 57.2135 85.0156 55.3906C83.8177 57.2656 82.4115 58.724 80.7969 59.7656C79.1823 60.7552 77.3854 61.25 75.4062 61.25ZM123.844 71.1719C123.583 72.4219 123.245 73.9844 122.828 75.8594C122.464 77.7344 122.021 79.7135 121.5 81.7969C121.031 83.8802 120.458 85.9375 119.781 87.9688C119.156 90.0521 118.453 91.901 117.672 93.5156C116.891 95.1823 116.031 96.5365 115.094 97.5781C114.156 98.6198 113.115 99.1406 111.969 99.1406C110.25 99.1406 108.766 98.6198 107.516 97.5781C106.318 96.5885 105.302 95.3125 104.469 93.75C103.635 92.2396 103.036 90.599 102.672 88.8281C102.255 87.0573 102.047 85.4167 102.047 83.9062C102.047 81.8229 102.229 80.0781 102.594 78.6719C102.958 77.3177 103.583 76.0156 104.469 74.7656C105.406 73.5156 106.656 72.1875 108.219 70.7812C109.781 69.375 111.786 67.6302 114.234 65.5469C115.432 64.5052 116.578 63.5156 117.672 62.5781C118.766 61.6406 119.807 60.7812 120.797 60C121.057 58.9583 121.292 57.9948 121.5 57.1094C121.76 56.1719 121.969 55.3385 122.125 54.6094C120.771 56.4323 119.13 57.9688 117.203 59.2188C115.328 60.4688 113.167 61.0938 110.719 61.0938C108.479 61.0938 106.656 60.1042 105.25 58.125C103.896 56.0938 103.219 53.125 103.219 49.2188C103.219 47.2917 103.583 45.0781 104.312 42.5781C105.042 40.0781 106.083 37.7344 107.438 35.5469C108.792 33.3594 110.458 31.5104 112.438 30C114.417 28.4896 116.63 27.7344 119.078 27.7344C120.224 27.7344 121.214 28.0208 122.047 28.5938C122.88 29.1667 123.583 29.8958 124.156 30.7812C124.729 31.6146 125.172 32.526 125.484 33.5156C125.797 34.4531 126.031 35.3385 126.188 36.1719C126.292 35.8594 126.37 35.5469 126.422 35.2344C126.474 34.8698 126.552 34.5573 126.656 34.2969C127.177 32.526 127.75 31.3281 128.375 30.7031C129.052 30.026 130.042 29.6875 131.344 29.6875C132.073 29.6875 132.672 29.8177 133.141 30.0781C133.661 30.3385 133.922 30.5729 133.922 30.7812C133.661 31.3542 133.453 31.7969 133.297 32.1094C133.141 32.4219 132.984 32.7604 132.828 33.125C132.672 33.4375 132.516 33.8542 132.359 34.375C132.203 34.8958 131.995 35.651 131.734 36.6406C131.63 37.0052 131.422 37.8646 131.109 39.2188C130.849 40.5208 130.484 42.0833 130.016 43.9062C129.599 45.7292 129.13 47.7344 128.609 49.9219C128.141 52.1094 127.672 54.2448 127.203 56.3281C128.661 55.4948 130.172 54.4792 131.734 53.2812C133.297 52.0833 134.781 50.8594 136.188 49.6094C137.594 48.3594 138.844 47.1875 139.938 46.0938C141.031 44.9479 141.839 44.0104 142.359 43.2812C142.776 42.6562 143.245 42.2135 143.766 41.9531C144.286 41.6927 144.729 41.6146 145.094 41.7188C145.51 41.7708 145.745 42.0052 145.797 42.4219C145.901 42.7865 145.745 43.3073 145.328 43.9844C144.13 45.9115 142.672 47.7865 140.953 49.6094C139.234 51.3802 137.464 53.0469 135.641 54.6094C133.87 56.1198 132.125 57.474 130.406 58.6719C128.74 59.8177 127.307 60.7552 126.109 61.4844C125.589 63.8281 125.146 65.7292 124.781 67.1875C124.417 68.6458 124.104 69.974 123.844 71.1719ZM114 55.7812C115.094 55.7812 116.109 55.4948 117.047 54.9219C118.036 54.349 118.922 53.6979 119.703 52.9688C120.484 52.1875 121.135 51.4062 121.656 50.625C122.177 49.8438 122.568 49.2188 122.828 48.75C123.036 48.2812 123.271 47.6562 123.531 46.875C123.844 46.0938 124.078 45.3385 124.234 44.6094C124.391 43.8802 124.443 43.2292 124.391 42.6562C124.391 42.0833 124.208 41.7708 123.844 41.7188C123.531 41.6667 123.271 41.4583 123.062 41.0938C122.906 40.7292 122.776 40.3125 122.672 39.8438C122.568 39.375 122.49 38.9062 122.438 38.4375C122.438 37.9688 122.411 37.5521 122.359 37.1875C122.099 35.3646 121.656 34.0365 121.031 33.2031C120.406 32.3698 119.703 31.9531 118.922 31.9531C117.62 31.9531 116.37 32.474 115.172 33.5156C114.026 34.5573 112.984 35.9115 112.047 37.5781C111.161 39.1927 110.458 40.9896 109.938 42.9688C109.417 44.8958 109.156 46.7448 109.156 48.5156C109.156 50.7031 109.469 52.474 110.094 53.8281C110.719 55.1302 112.021 55.7812 114 55.7812ZM110.406 92.0312C111.448 92.0312 112.281 91.25 112.906 89.6875C113.583 88.1771 114.286 86.0938 115.016 83.4375C115.172 82.8125 115.38 81.901 115.641 80.7031C115.953 79.5573 116.292 78.2292 116.656 76.7188C117.073 75.2083 117.49 73.5677 117.906 71.7969C118.323 70.0781 118.766 68.3333 119.234 66.5625C118.818 66.9271 118.375 67.2917 117.906 67.6562C117.49 68.0729 117.047 68.5417 116.578 69.0625C115.432 70.1562 114.312 71.1979 113.219 72.1875C112.177 73.2292 111.24 74.2969 110.406 75.3906C109.573 76.5365 108.896 77.7604 108.375 79.0625C107.906 80.3646 107.672 81.875 107.672 83.5938C107.672 85.3125 107.724 86.7188 107.828 87.8125C107.984 88.9062 108.167 89.7656 108.375 90.3906C108.635 91.0156 108.922 91.4323 109.234 91.6406C109.599 91.901 109.99 92.0312 110.406 92.0312ZM163.219 60.7031C163.271 57.3177 163.74 53.0469 164.625 47.8906C165.354 43.4635 166.526 37.8125 168.141 30.9375C169.755 24.0625 172.073 15.7812 175.094 6.09375C175.354 5.57292 175.745 5.13021 176.266 4.76562C176.839 4.40104 177.411 4.08854 177.984 3.82812C178.609 3.56771 179.312 3.35938 180.094 3.20312C180.823 3.04688 181.526 2.91667 182.203 2.8125C182.776 2.70833 183.375 2.65625 184 2.65625C184.625 2.65625 185.146 2.70833 185.562 2.8125C183.74 7.39583 182.177 11.5625 180.875 15.3125C179.573 19.0104 178.505 22.2135 177.672 24.9219C176.682 28.099 175.875 30.9115 175.25 33.3594C174.365 35.9635 173.609 38.5677 172.984 41.1719C172.359 43.776 171.839 46.25 171.422 48.5938C171.057 50.8854 170.771 52.9427 170.562 54.7656C170.406 56.5885 170.328 58.0208 170.328 59.0625C170.38 62.1875 170.901 64.6354 171.891 66.4062C172.88 68.2292 174.495 69.1406 176.734 69.1406C178.609 69.1406 180.354 68.2552 181.969 66.4844C183.635 64.7135 185.146 62.5521 186.5 60C187.906 57.3958 189.104 54.6094 190.094 51.6406C191.083 48.6719 191.839 46.0156 192.359 43.6719C192.464 43.2552 192.568 42.6823 192.672 41.9531C193.349 38.724 194.156 35.1302 195.094 31.1719C195.875 27.7865 196.839 23.8021 197.984 19.2188C199.182 14.6354 200.536 9.63542 202.047 4.21875C202.464 3.80208 202.932 3.46354 203.453 3.20312C203.974 2.94271 204.443 2.73438 204.859 2.57812C205.38 2.36979 205.901 2.23958 206.422 2.1875C206.943 2.08333 207.49 2.03125 208.062 2.03125C208.531 2.03125 209.078 2.08333 209.703 2.1875C210.328 2.23958 210.953 2.36979 211.578 2.57812C210.536 5.39062 209.521 8.33333 208.531 11.4062C207.542 14.4271 206.656 17.2396 205.875 19.8438C204.938 22.8646 204.052 25.8594 203.219 28.8281C202.021 32.5781 201.057 35.9635 200.328 38.9844C199.599 41.9531 199 44.7135 198.531 47.2656C198.115 49.7656 197.776 52.1094 197.516 54.2969C197.307 56.4323 197.099 58.5417 196.891 60.625C196.734 62.2917 196.708 63.8542 196.812 65.3125C196.917 66.6146 197.099 67.9167 197.359 69.2188C197.62 70.5208 198.089 71.6146 198.766 72.5C198.505 72.8646 198.141 73.125 197.672 73.2812C197.203 73.4375 196.708 73.5677 196.188 73.6719C195.615 73.776 194.99 73.8281 194.312 73.8281C192.958 73.8281 191.943 72.9688 191.266 71.25C190.641 69.5833 190.302 66.901 190.25 63.2031C189.833 64.0365 189.182 65.0781 188.297 66.3281C187.411 67.6302 186.292 68.8802 184.938 70.0781C183.635 71.3281 182.099 72.3958 180.328 73.2812C178.557 74.1667 176.578 74.6094 174.391 74.6094C172.203 74.6094 170.38 74.2188 168.922 73.4375C167.516 72.7083 166.37 71.6927 165.484 70.3906C164.651 69.1406 164.052 67.6562 163.688 65.9375C163.375 64.2708 163.219 62.526 163.219 60.7031ZM204.391 71.1719C204.599 71.0156 204.938 70.7552 205.406 70.3906C205.823 70.026 206.344 69.349 206.969 68.3594C207.542 67.3698 208.193 65.9375 208.922 64.0625C209.651 62.1875 210.406 59.6354 211.188 56.4062C211.604 54.6875 212.151 52.5 212.828 49.8438C213.505 47.1875 214.234 44.349 215.016 41.3281C215.849 38.3073 216.682 35.2083 217.516 32.0312C218.349 28.8021 219.156 25.7552 219.938 22.8906C220.719 19.974 221.422 17.3438 222.047 15C222.672 12.6562 223.167 10.8333 223.531 9.53125C222.542 10.1562 221.578 10.8594 220.641 11.6406C219.807 12.3177 218.922 13.099 217.984 13.9844C217.047 14.8177 216.135 15.7031 215.25 16.6406C214.573 16.0677 214.052 15.4427 213.688 14.7656C213.479 14.4531 213.297 14.1146 213.141 13.75C212.828 12.9688 212.672 12.1615 212.672 11.3281C212.672 10.4948 213.323 9.63542 214.625 8.75C215.302 8.28125 216.318 7.60417 217.672 6.71875C219.078 5.83333 220.797 4.97396 222.828 4.14062C224.859 3.25521 227.229 2.5 229.938 1.875C232.646 1.25 235.641 0.9375 238.922 0.9375C242.203 0.9375 244.833 1.58854 246.812 2.89062C248.844 4.19271 250.38 5.78125 251.422 7.65625C252.516 9.53125 253.219 11.5104 253.531 13.5938C253.844 15.6771 253.922 17.5 253.766 19.0625C253.453 21.9792 252.516 25.026 250.953 28.2031C249.391 31.3802 247.229 34.3229 244.469 37.0312C241.708 39.6875 238.349 41.9531 234.391 43.8281C230.432 45.7031 225.901 46.7708 220.797 47.0312C220.38 49.0104 219.964 51.0417 219.547 53.125C219.13 55.2083 218.688 57.2656 218.219 59.2969C217.75 61.276 217.255 63.125 216.734 64.8438C216.266 66.6146 215.771 68.125 215.25 69.375C214.729 70.7292 214.052 71.7969 213.219 72.5781C212.385 73.4115 211.057 73.8281 209.234 73.8281C208.297 73.8281 207.438 73.5938 206.656 73.125C205.823 72.6562 205.068 72.0052 204.391 71.1719ZM222.906 35.5469C222.75 36.3802 222.542 37.474 222.281 38.8281C222.073 40.1302 221.812 41.6146 221.5 43.2812C222.906 43.0729 224.469 42.7083 226.188 42.1875C227.906 41.6146 229.625 40.8594 231.344 39.9219C233.062 38.9844 234.729 37.8646 236.344 36.5625C238.01 35.2083 239.521 33.6719 240.875 31.9531C242.229 30.1823 243.349 28.2031 244.234 26.0156C245.172 23.776 245.771 21.3021 246.031 18.5938C246.292 15.9896 246.135 13.8281 245.562 12.1094C245.042 10.3385 244.26 8.93229 243.219 7.89062C242.177 6.79688 240.979 6.04167 239.625 5.625C238.271 5.15625 236.917 4.92188 235.562 4.92188C234.26 4.92188 232.984 5.10417 231.734 5.46875C230.484 5.83333 229.234 6.30208 227.984 6.875C228.141 6.92708 228.323 7.05729 228.531 7.26562C228.844 7.57812 229.078 8.02083 229.234 8.59375C227.984 13.6458 226.943 17.8646 226.109 21.25C225.328 24.6354 224.703 27.3958 224.234 29.5312C223.661 32.0312 223.219 34.0365 222.906 35.5469ZM248.609 71.1719C248.818 71.0156 249.156 70.7552 249.625 70.3906C250.042 70.026 250.562 69.349 251.188 68.3594C251.76 67.3698 252.411 65.9375 253.141 64.0625C253.87 62.1875 254.625 59.6354 255.406 56.4062C255.823 54.6875 256.37 52.5 257.047 49.8438C257.724 47.1875 258.453 44.349 259.234 41.3281C260.068 38.3073 260.901 35.2083 261.734 32.0312C262.568 28.8021 263.375 25.7552 264.156 22.8906C264.938 19.974 265.641 17.3438 266.266 15C266.891 12.6562 267.385 10.8333 267.75 9.53125C266.76 10.1562 265.797 10.8594 264.859 11.6406C264.026 12.3177 263.141 13.099 262.203 13.9844C261.266 14.8177 260.354 15.7031 259.469 16.6406C258.792 16.0677 258.271 15.4427 257.906 14.7656C257.698 14.4531 257.516 14.1146 257.359 13.75C257.047 12.9688 256.891 12.1615 256.891 11.3281C256.891 10.4948 257.542 9.63542 258.844 8.75C259.521 8.28125 260.536 7.60417 261.891 6.71875C263.297 5.83333 265.016 4.97396 267.047 4.14062C269.078 3.25521 271.448 2.5 274.156 1.875C276.865 1.25 279.859 0.9375 283.141 0.9375C286.422 0.9375 289.052 1.58854 291.031 2.89062C293.062 4.19271 294.599 5.78125 295.641 7.65625C296.734 9.53125 297.438 11.5104 297.75 13.5938C298.062 15.6771 298.141 17.5 297.984 19.0625C297.672 21.9792 296.734 25.026 295.172 28.2031C293.609 31.3802 291.448 34.3229 288.688 37.0312C285.927 39.6875 282.568 41.9531 278.609 43.8281C274.651 45.7031 270.12 46.7708 265.016 47.0312C264.599 49.0104 264.182 51.0417 263.766 53.125C263.349 55.2083 262.906 57.2656 262.438 59.2969C261.969 61.276 261.474 63.125 260.953 64.8438C260.484 66.6146 259.99 68.125 259.469 69.375C258.948 70.7292 258.271 71.7969 257.438 72.5781C256.604 73.4115 255.276 73.8281 253.453 73.8281C252.516 73.8281 251.656 73.5938 250.875 73.125C250.042 72.6562 249.286 72.0052 248.609 71.1719ZM267.125 35.5469C266.969 36.3802 266.76 37.474 266.5 38.8281C266.292 40.1302 266.031 41.6146 265.719 43.2812C267.125 43.0729 268.688 42.7083 270.406 42.1875C272.125 41.6146 273.844 40.8594 275.562 39.9219C277.281 38.9844 278.948 37.8646 280.562 36.5625C282.229 35.2083 283.74 33.6719 285.094 31.9531C286.448 30.1823 287.568 28.2031 288.453 26.0156C289.391 23.776 289.99 21.3021 290.25 18.5938C290.51 15.9896 290.354 13.8281 289.781 12.1094C289.26 10.3385 288.479 8.93229 287.438 7.89062C286.396 6.79688 285.198 6.04167 283.844 5.625C282.49 5.15625 281.135 4.92188 279.781 4.92188C278.479 4.92188 277.203 5.10417 275.953 5.46875C274.703 5.83333 273.453 6.30208 272.203 6.875C272.359 6.92708 272.542 7.05729 272.75 7.26562C273.062 7.57812 273.297 8.02083 273.453 8.59375C272.203 13.6458 271.161 17.8646 270.328 21.25C269.547 24.6354 268.922 27.3958 268.453 29.5312C267.88 32.0312 267.438 34.0365 267.125 35.5469Z" fill="white"/>
</svg>
